<?xml version="1.0" standalone="no"?>
<!DOCTYPE svg PUBLIC "-//W3C//DTD SVG 20010904//EN"
 "http://www.w3.org/TR/2001/REC-SVG-20010904/DTD/svg10.dtd">
<svg version="1.0" xmlns="http://www.w3.org/2000/svg"
 width="700.000000pt" height="700.000000pt" viewBox="0 0 700.000000 700.000000"
 preserveAspectRatio="xMidYMid meet">
<metadata>
Created by potrace 1.11, written by Peter Selinger 2001-2013
</metadata>
<g transform="translate(0.000000,700.000000) scale(0.100000,-0.100000)"
fill="#000000" stroke="none">
<path d="M3222 6089 l-911 -912 1517 -1519 1517 -1518 152 152 153 153 -682
682 c-375 375 -680 685 -678 687 3 3 174 174 380 381 l374 375 -152 153 -152
152 -380 -380 -380 -380 -531 531 -531 532 760 760 759 760 -152 151 -152 151
-911 -911z"/>
<path d="M1842 4708 l-152 -153 682 -682 683 -683 -380 -380 -380 -380 153
-152 152 -153 380 380 379 379 531 -530 530 -531 -755 -757 c-415 -416 -755
-759 -755 -764 0 -4 67 -74 148 -155 l148 -147 904 905 c498 498 906 909 908
914 2 5 -678 691 -1510 1525 l-1513 1516 -153 -152z"/>
</g>
</svg>
